# xmcd
#
# Track frame offsets:
#	150
#	21152
#	39312
#	57840
#	72832
#	88747
#	104042
#	116445
#	130152
#	139745
#	159472
#	175730
#	197567
#
# Disc length: 2760 seconds
#
# Revision: 0
# Processed by: cddbd v1.4PL0 Copyright (c) Steve Scherf et al.
# Submitted via: audiograbber 1.81.01
#
DISCID=ae0ac60d
DTITLE=MIRANDA MARTINO - NAPOLI MIA BELLA NAPOLI CD1
DYEAR=1900
DGENRE=pop
TTITLE0=I'te vuria vasà
TTITLE1=Pescatore'e pusilleco
TTITLE2='Na sera è maggio
TTITLE3=Canzone appassionata
TTITLE4=Te voglio bene assaie
TTITLE5=Maria mari'
TTITLE6=A' frangesa
TTITLE7='Ndringhetendra'
TTITLE8=L'addio
TTITLE9='o sole mio
TTITLE10=Santa Lucia luntana
TTITLE11=Sceiate
TTITLE12=Ninì tirabusciò'
EXTD=
EXTT0=
EXTT1=
EXTT2=
EXTT3=
EXTT4=
EXTT5=
EXTT6=
EXTT7=
EXTT8=
EXTT9=
EXTT10=
EXTT11=
EXTT12=
PLAYORDER=
